<?xml version="1.0" encoding="UTF-8" standalone="no"?>
<!DOCTYPE svg PUBLIC "-//W3C//DTD SVG 1.1//EN"
 "http://www.w3.org/Graphics/SVG/1.1/DTD/svg11.dtd">
<!-- Generated by graphviz version 2.40.1 (20161225.0304)
 -->
<!-- Title: dependencies Pages: 1 -->
<svg width="691pt" height="284pt"
 viewBox="0.00 0.00 691.00 284.00" xmlns="http://www.w3.org/2000/svg" xmlns:xlink="http://www.w3.org/1999/xlink">
<g id="graph0" class="graph" transform="scale(1 1) rotate(0) translate(4 280)">
<title>dependencies</title>
<polygon fill="#ffffff" stroke="transparent" points="-4,4 -4,-280 687,-280 687,4 -4,4"/>
<text text-anchor="start" x="320.5091" y="-42.4" font-family="sans-serif" font-weight="bold" font-size="14.00" fill="#000000">Legend</text>
<polygon fill="#ffffb3" stroke="transparent" points="107.5,-10 107.5,-30 127.5,-30 127.5,-10 107.5,-10"/>
<text text-anchor="start" x="131.129" y="-15.4" font-family="sans-serif" font-size="14.00" fill="#000000"> &#160;Declarations</text>
<polygon fill="#8dd3c7" stroke="transparent" points="220.5,-10 220.5,-30 240.5,-30 240.5,-10 220.5,-10"/>
<text text-anchor="start" x="244.2251" y="-15.4" font-family="sans-serif" font-size="14.00" fill="#000000"> &#160;Module</text>
<polygon fill="#80b1d3" stroke="transparent" points="306.5,-10 306.5,-30 326.5,-30 326.5,-10 306.5,-10"/>
<text text-anchor="start" x="330.2812" y="-15.4" font-family="sans-serif" font-size="14.00" fill="#000000"> &#160;Bootstrap</text>
<polygon fill="#fdb462" stroke="transparent" points="403.5,-10 403.5,-30 423.5,-30 423.5,-10 403.5,-10"/>
<text text-anchor="start" x="427.1732" y="-15.4" font-family="sans-serif" font-size="14.00" fill="#000000"> &#160;Providers</text>
<polygon fill="#fb8072" stroke="transparent" points="499.5,-10 499.5,-30 519.5,-30 519.5,-10 499.5,-10"/>
<text text-anchor="start" x="523.2258" y="-15.4" font-family="sans-serif" font-size="14.00" fill="#000000"> &#160;Exports</text>
<g id="clust1" class="cluster">
<title>cluster_AppModule</title>
<polygon fill="none" stroke="#000000" stroke-dasharray="1,5" points="8,-70 8,-268 675,-268 675,-70 8,-70"/>
</g>
<g id="clust2" class="cluster">
<title>cluster_AppModule_declarations</title>
<polygon fill="none" stroke="#000000" points="16,-78 16,-130 667,-130 667,-78 16,-78"/>
</g>
<g id="clust10" class="cluster">
<title>cluster_AppModule_bootstrap</title>
<polygon fill="none" stroke="#000000" points="260,-208 260,-260 384,-260 384,-208 260,-208"/>
</g>
<!-- AppComponent -->
<g id="node1" class="node">
<title>AppComponent</title>
<polygon fill="#ffffb3" stroke="#000000" points="658.9399,-122 553.0601,-122 553.0601,-86 658.9399,-86 658.9399,-122"/>
<text text-anchor="middle" x="606" y="-99.8" font-family="Times,serif" font-size="14.00" fill="#000000">AppComponent</text>
</g>
<!-- AppModule -->
<g id="node6" class="node">
<title>AppModule</title>
<polygon fill="#8dd3c7" stroke="#000000" points="363.6571,-187 360.6571,-191 339.6571,-191 336.6571,-187 280.3429,-187 280.3429,-151 363.6571,-151 363.6571,-187"/>
<text text-anchor="middle" x="322" y="-164.8" font-family="Times,serif" font-size="14.00" fill="#000000">AppModule</text>
</g>
<!-- AppComponent&#45;&gt;AppModule -->
<g id="edge1" class="edge">
<title>AppComponent&#45;&gt;AppModule</title>
<path fill="none" stroke="#000000" d="M606,-122.2843C606,-143.3211 606,-175 606,-175 606,-175 373.9052,-175 373.9052,-175"/>
<polygon fill="#000000" stroke="#000000" points="373.9052,-171.5001 363.9052,-175 373.9051,-178.5001 373.9052,-171.5001"/>
</g>
<!-- CalculatorComponent -->
<g id="node2" class="node">
<title>CalculatorComponent</title>
<polygon fill="#ffffb3" stroke="#000000" points="534.6456,-122 395.3544,-122 395.3544,-86 534.6456,-86 534.6456,-122"/>
<text text-anchor="middle" x="465" y="-99.8" font-family="Times,serif" font-size="14.00" fill="#000000">CalculatorComponent</text>
</g>
<!-- CalculatorComponent&#45;&gt;AppModule -->
<g id="edge2" class="edge">
<title>CalculatorComponent&#45;&gt;AppModule</title>
<path fill="none" stroke="#000000" d="M465,-122.0225C465,-139.3734 465,-163 465,-163 465,-163 373.7459,-163 373.7459,-163"/>
<polygon fill="#000000" stroke="#000000" points="373.746,-159.5001 363.7459,-163 373.7459,-166.5001 373.746,-159.5001"/>
</g>
<!-- LogoComponent -->
<g id="node3" class="node">
<title>LogoComponent</title>
<polygon fill="#ffffb3" stroke="#000000" points="377.3851,-122 266.6149,-122 266.6149,-86 377.3851,-86 377.3851,-122"/>
<text text-anchor="middle" x="322" y="-99.8" font-family="Times,serif" font-size="14.00" fill="#000000">LogoComponent</text>
</g>
<!-- LogoComponent&#45;&gt;AppModule -->
<g id="edge3" class="edge">
<title>LogoComponent&#45;&gt;AppModule</title>
<path fill="none" stroke="#000000" d="M322,-122.1061C322,-122.1061 322,-140.991 322,-140.991"/>
<polygon fill="#000000" stroke="#000000" points="318.5001,-140.9909 322,-150.991 325.5001,-140.991 318.5001,-140.9909"/>
</g>
<!-- SettingsComponent -->
<g id="node4" class="node">
<title>SettingsComponent</title>
<polygon fill="#ffffb3" stroke="#000000" points="248.4468,-122 121.5532,-122 121.5532,-86 248.4468,-86 248.4468,-122"/>
<text text-anchor="middle" x="185" y="-99.8" font-family="Times,serif" font-size="14.00" fill="#000000">SettingsComponent</text>
</g>
<!-- SettingsComponent&#45;&gt;AppModule -->
<g id="edge4" class="edge">
<title>SettingsComponent&#45;&gt;AppModule</title>
<path fill="none" stroke="#000000" d="M185,-122.0225C185,-139.3734 185,-163 185,-163 185,-163 270.1511,-163 270.1511,-163"/>
<polygon fill="#000000" stroke="#000000" points="270.1511,-166.5001 280.1511,-163 270.151,-159.5001 270.1511,-166.5001"/>
</g>
<!-- ThemePipe -->
<g id="node5" class="node">
<title>ThemePipe</title>
<polygon fill="#ffffb3" stroke="#000000" points="103.7606,-122 24.2394,-122 24.2394,-86 103.7606,-86 103.7606,-122"/>
<text text-anchor="middle" x="64" y="-99.8" font-family="Times,serif" font-size="14.00" fill="#000000">ThemePipe</text>
</g>
<!-- ThemePipe&#45;&gt;AppModule -->
<g id="edge5" class="edge">
<title>ThemePipe&#45;&gt;AppModule</title>
<path fill="none" stroke="#000000" d="M64,-122.2843C64,-143.3211 64,-175 64,-175 64,-175 270.2611,-175 270.2611,-175"/>
<polygon fill="#000000" stroke="#000000" points="270.2611,-178.5001 280.2611,-175 270.2611,-171.5001 270.2611,-178.5001"/>
</g>
<!-- AppComponent  -->
<g id="node7" class="node">
<title>AppComponent </title>
<polygon fill="#80b1d3" stroke="#000000" points="376.439,-252 267.561,-252 267.561,-216 376.439,-216 376.439,-252"/>
<text text-anchor="middle" x="322" y="-229.8" font-family="Times,serif" font-size="14.00" fill="#000000">AppComponent </text>
</g>
<!-- AppModule&#45;&gt;AppComponent  -->
<g id="edge6" class="edge">
<title>AppModule&#45;&gt;AppComponent </title>
<path fill="none" stroke="#000000" stroke-dasharray="1,5" d="M322,-187.1061C322,-187.1061 322,-205.991 322,-205.991"/>
<polygon fill="#000000" stroke="#000000" points="318.5001,-205.9909 322,-215.991 325.5001,-205.991 318.5001,-205.9909"/>
</g>
</g>
</svg>
